<svg id="Layer_1" data-name="Layer 1" xmlns="http://www.w3.org/2000/svg" xmlns:xlink="http://www.w3.org/1999/xlink" viewBox="0 0 47.29 47.29"><defs><style>.cls-1{fill:#fff;}.cls-2{fill:url(#linear-gradient);}.cls-3{fill:url(#linear-gradient-2);}</style><linearGradient id="linear-gradient" x1="8.3" y1="8.27" x2="41.75" y2="41.72" gradientUnits="userSpaceOnUse"><stop offset="0" stop-color="#6c57a5"/><stop offset="0.07" stop-color="#7355a3"/><stop offset="0.15" stop-color="#7b54a2"/><stop offset="0.2" stop-color="#8253a2"/><stop offset="0.39" stop-color="#8a53a1"/><stop offset="0.54" stop-color="#a5529f"/><stop offset="1" stop-color="#cb5796"/></linearGradient><linearGradient id="linear-gradient-2" x1="17.41" y1="21.88" x2="24.87" y2="29.34" gradientUnits="userSpaceOnUse"><stop offset="0.2" stop-color="#8253a2"/><stop offset="0.45" stop-color="#8a53a1"/><stop offset="0.85" stop-color="#9452a0"/></linearGradient></defs><title>Logo Tou system</title><ellipse class="cls-1" cx="23.64" cy="23.64" rx="23.45" ry="23.51"/><path class="cls-2" d="M24.25,1.36h1.54s.07,0,.11,0c.29,0,.58,0,.87,0,.5,0,1,.08,1.49.15s.88.14,1.31.22,1,.18,1.46.31,1.2.36,1.8.55c.36.12.71.25,1.06.39s.85.36,1.28.55c.21.09.41.19.62.3l1.14.64q.74.43,1.44.9c.32.21.62.45.93.68s.63.46.92.72c.5.43,1,.89,1.46,1.34A16.2,16.2,0,0,1,43,9.61a21.41,21.41,0,0,1,1.37,1.77,21.17,21.17,0,0,1,1.21,1.91c.24.41.44.85.65,1.27s.32.66.47,1,.27.6.38.91q.25.72.48,1.44c.16.54.31,1.09.45,1.64.08.3.13.62.19.93.09.54.19,1.09.26,1.63A12.65,12.65,0,0,1,48.6,24a1,1,0,0,0,0,.17v1.54c0,.07,0,.14,0,.21,0,.41,0,.81-.06,1.21s-.09.86-.15,1.29-.12.75-.2,1.12-.18,1-.31,1.44-.35,1.17-.54,1.75c-.13.4-.28.79-.43,1.18-.09.23-.19.44-.29.66-.18.39-.34.78-.53,1.16s-.54,1-.83,1.46-.47.77-.72,1.14-.57.76-.84,1.14-.74.93-1.13,1.37-.87.9-1.32,1.34c-.27.26-.55.52-.84.76-.5.4-1,.79-1.52,1.17s-.8.57-1.21.83-.79.47-1.19.69-.86.46-1.29.68a3.55,3.55,0,0,1-.44.21l-.85.35c-.18.07-.35.16-.52.22-.44.14-.87.29-1.31.42s-1.06.31-1.6.44a20.11,20.11,0,0,1-2.42.43c-.46,0-.92.1-1.37.13-.29,0-.58,0-.87.05,0,0-.07,0-.11,0H24.29l-.09,0-.63,0c-.43,0-.86-.06-1.29-.11s-1-.14-1.54-.23-.83-.16-1.25-.26-.81-.2-1.21-.32-.82-.26-1.22-.4-.87-.31-1.29-.49-.84-.37-1.24-.58-1.1-.55-1.63-.86a19.18,19.18,0,0,1-2.19-1.49c-.49-.39-1-.78-1.45-1.19a19.48,19.48,0,0,1-1.77-1.75c-.33-.37-.66-.74-1-1.14s-.71-1-1.07-1.47a18.4,18.4,0,0,1-1.22-2c-.26-.5-.5-1-.75-1.52a6.65,6.65,0,0,1-.27-.61A22.44,22.44,0,0,1,2.45,32C2.31,31.49,2.14,31,2,30.44c-.18-.79-.33-1.59-.43-2.39s-.15-1.46-.18-2.2a.61.61,0,0,0,0-.18V24.33a.31.31,0,0,0,0-.12c0-.41,0-.83.08-1.23s.09-.94.15-1.41.13-.79.21-1.18.19-1,.31-1.44.35-1.14.53-1.72a11.93,11.93,0,0,1,.59-1.54c.1-.24.21-.47.31-.7s.25-.56.39-.82.43-.8.66-1.19.49-.82.76-1.22.61-.85.93-1.27.52-.69.81-1,.76-.82,1.15-1.21.83-.82,1.27-1.19S10.49,6.3,11,5.94s.79-.56,1.2-.82.89-.54,1.34-.79.83-.46,1.26-.67.73-.32,1.09-.48a17.65,17.65,0,0,1,2-.72c.61-.2,1.24-.36,1.87-.5s1.5-.3,2.27-.4a15.89,15.89,0,0,1,2.07-.16A1,1,0,0,0,24.25,1.36Zm-.77,34a1.35,1.35,0,0,0,.76-.17,1.39,1.39,0,0,1,.28-.12,7.25,7.25,0,0,0,1.53-.69c.42-.25.83-.53,1.25-.79l.08-.06c.3-.28.6-.56.89-.85s.53-.38.66-.71a8.69,8.69,0,0,0,.76-1.14c.17-.25.3-.52.45-.79l.3-.6a2.92,2.92,0,0,0,.17-.36,7.61,7.61,0,0,0,.44-1.93,2.06,2.06,0,0,1,0-.26c.05-.28.1-.56.14-.84a1.37,1.37,0,0,0,0-.35,3,3,0,0,1-.06-.43c0-.31,0-.62-.06-.93a2.25,2.25,0,0,0-.16-.81.41.41,0,0,1,0-.21.93.93,0,0,0-.1-.57c-.22-.49-.46-1-.66-1.46a6.13,6.13,0,0,0-.63-1.22c-.07-.11-.14-.22-.2-.33a1.54,1.54,0,0,0-.44-.54,2.65,2.65,0,0,1-.29-.29c-.23-.25-.44-.51-.68-.74a1.61,1.61,0,0,0-.5-.31,1.06,1.06,0,0,1-.41-.31,1.63,1.63,0,0,0-.71-.59l-.6-.3a1.36,1.36,0,0,0-.25-.11,1.31,1.31,0,0,1-.56-.32.54.54,0,0,0-.45-.15.66.66,0,0,1-.31-.06l-.3-.17a.53.53,0,0,0-.39-.07,1,1,0,0,1-.56,0l-.45-.1-.68-.13a2.12,2.12,0,0,0-1.06,0,1.51,1.51,0,0,1-.52.05,1.65,1.65,0,0,0-.66.06l-.33.08c-.28.07-.57.12-.85.21a9.79,9.79,0,0,0-2.26,1L16,17a6.53,6.53,0,0,0-.56.35c-.29.23-.56.47-.84.7-.07.06-.15.1-.21.16a2.33,2.33,0,0,0-.42.41,1.17,1.17,0,0,1-.35.35.54.54,0,0,0-.22.2,9.12,9.12,0,0,1-.56.82,3.51,3.51,0,0,0-.27.4l-.5.86c-.05.1-.11.19-.15.29-.09.27-.18.54-.26.81a6.06,6.06,0,0,0-.36,1.26,1.67,1.67,0,0,1-.08.2.64.64,0,0,0,0,.3,1.16,1.16,0,0,1-.06.69,1,1,0,0,0,0,.24c0,.16,0,.32,0,.48a1.94,1.94,0,0,0,0,.54,1,1,0,0,1,.05.42,3.61,3.61,0,0,0,0,.87,1.33,1.33,0,0,0,.05.34,8.88,8.88,0,0,1,.38,1.24,2.4,2.4,0,0,0,.39.88A8.1,8.1,0,0,1,12.67,31a2.76,2.76,0,0,0,.51.75.83.83,0,0,1,.14.22.58.58,0,0,0,.32.35.83.83,0,0,1,.37.3,3,3,0,0,0,.77.73,2.58,2.58,0,0,1,.45.35,2.65,2.65,0,0,0,.74.49,3.87,3.87,0,0,1,.68.46,1.12,1.12,0,0,0,.51.23,1,1,0,0,1,.27.1c.14.06.27.13.42.18s.46.16.69.22a3.07,3.07,0,0,0,.42.07l.5.06c.11,0,.22.05.34.06.34.05.69.08,1,.12A2.4,2.4,0,0,0,22,35.6h.08a2.69,2.69,0,0,0,1.05-.17A2.21,2.21,0,0,1,23.48,35.34ZM48.58,25c0-.27,0-.58,0-.88s0-.69,0-1c-.06-.54-.13-1.07-.19-1.61a19.62,19.62,0,0,0-.52-2.51c-.15-.58-.33-1.15-.52-1.72s-.33-.89-.5-1.34c0-.08-.06-.15-.16-.15s-.46-.05-.69-.05l-1.64,0a.38.38,0,0,0-.39.32,1.61,1.61,0,0,0,0,.49,2.15,2.15,0,0,1,0,.62,2,2,0,0,0,0,.6,5.33,5.33,0,0,1,0,.89,2.87,2.87,0,0,0,0,1s0,0,0,0c0,.29,0,.59,0,.89s0,.35-.06.52a.88.88,0,0,0,0,.28,4.53,4.53,0,0,1,0,1.47.71.71,0,0,0,0,.25,6.72,6.72,0,0,1,.08,1.27,1.32,1.32,0,0,1,0,.28,1.15,1.15,0,0,0,0,.49,7,7,0,0,1,0,1.58.24.24,0,0,0,0,.14,1.65,1.65,0,0,1,0,.7A5.69,5.69,0,0,1,43.35,29a.3.3,0,0,1-.1.14,1.15,1.15,0,0,0-.47.55.7.7,0,0,1-.21.21c-.13.1-.29.18-.42.28a2.6,2.6,0,0,1-1,.44c-.22.05-.45.05-.68.08a3,3,0,0,1-1.36-.11.92.92,0,0,1-.34-.21,1.33,1.33,0,0,0-.38-.29,2,2,0,0,1-.88-.81c-.09-.15-.21-.28-.31-.43a1.72,1.72,0,0,1-.25-.43,3.48,3.48,0,0,1-.22-1.11c0-.13,0-.27,0-.4a.55.55,0,0,1,0-.18,1.87,1.87,0,0,0,0-.78,1.09,1.09,0,0,1,0-.36c.11-.34,0-.68.06-1,0,0,0,0,0,0a4.86,4.86,0,0,1,0-.66,2.5,2.5,0,0,0,0-.67,1,1,0,0,1,0-.24c0-.15,0-.29,0-.44a5.42,5.42,0,0,1,0-.57,2.15,2.15,0,0,0,0-.62,1.08,1.08,0,0,1,0-.18c0-.15,0-.31,0-.46l-.06-1.24a1.5,1.5,0,0,1,0-.2c0-.12,0-.23,0-.35,0-.49,0-1-.05-1.46,0,0,0,0,0-.06,0-.41,0-.83,0-1.24a.4.4,0,0,0-.32-.4,2,2,0,0,0-.74-.06,1.32,1.32,0,0,1-.44,0,3.14,3.14,0,0,0-.81,0,5.14,5.14,0,0,1-1.11,0,4.18,4.18,0,0,0-1,0,.56.56,0,0,0-.47.72,2.44,2.44,0,0,1,.07.39c0,.13,0,.26,0,.39a1.55,1.55,0,0,1,0,.64.86.86,0,0,0,0,.61.74.74,0,0,1,0,.26c0,.22,0,.43,0,.65a.79.79,0,0,1-.06.43.45.45,0,0,0,0,.41.78.78,0,0,1,.05.4,1.3,1.3,0,0,0,0,.44,1.26,1.26,0,0,1-.07.64.38.38,0,0,0,0,.33,1,1,0,0,1,.06.48,2.9,2.9,0,0,0,0,.59.76.76,0,0,1-.06.47.37.37,0,0,0,0,.31,1,1,0,0,1,.07.54,2.16,2.16,0,0,0,0,.44.8.8,0,0,1,0,.46.8.8,0,0,0,0,.53,1.54,1.54,0,0,1,0,.3,5,5,0,0,0,0,.55,1.1,1.1,0,0,1-.05.51.66.66,0,0,0,0,.55.62.62,0,0,1,.06.38,1.4,1.4,0,0,0,0,.64c.07.27.16.53.23.8a4.12,4.12,0,0,0,.71,1.55c.23.3.42.63.62.95.07.11.12.24.18.36a.48.48,0,0,0,.1.17l.73.66a.94.94,0,0,1,.23.26,1.05,1.05,0,0,0,.67.55,1.73,1.73,0,0,1,.34.21c.12.08.24.16.37.23s.47.22.68.36a1.81,1.81,0,0,0,.83.3,1.18,1.18,0,0,1,.43.08,6.34,6.34,0,0,0,1,.28,2.07,2.07,0,0,0,.43,0l1,0c.17,0,.35,0,.52,0s.39-.08.58-.12a3,3,0,0,0,1.53-.7,1.69,1.69,0,0,1,.31-.21c.17-.1.28-.06.34.13a1.2,1.2,0,0,1,0,.2c0,.12,0,.24,0,.36a.25.25,0,0,0,.22.21,2.27,2.27,0,0,0,.52,0,5.06,5.06,0,0,1,1.23,0,.34.34,0,0,0,.41-.17c.25-.58.51-1.14.73-1.73a21.22,21.22,0,0,0,.85-2.74c.13-.55.25-1.1.35-1.65a22.59,22.59,0,0,0,.31-2.59C48.56,26,48.56,25.49,48.58,25ZM8.11,15.63c0-.34,0-.66,0-1A2.45,2.45,0,0,0,8,13.89a.39.39,0,0,1,0-.24,1.29,1.29,0,0,0,.07-.55v-.29a2.75,2.75,0,0,0,0-.5,2.54,2.54,0,0,1,0-.87,3.05,3.05,0,0,0,.05-.8c0-.26-.06-.51-.08-.77a.28.28,0,0,0-.13-.24,1,1,0,0,0-.62-.12c-.15,0-.18.14-.27.22L7,9.83c-.31.39-.63.77-.93,1.17a10.17,10.17,0,0,0-.6.86c-.38.61-.76,1.23-1.12,1.86-.25.45-.47.92-.69,1.39s-.42,1-.61,1.45-.33.94-.48,1.41a23.23,23.23,0,0,0-.6,2.32,2.06,2.06,0,0,0,0,.21L3,20.6c.16,0,.22.08.24.24a1.82,1.82,0,0,1,0,.33,2,2,0,0,0,0,.74,2,2,0,0,1,.06.48,3.18,3.18,0,0,1-.07.62,2.21,2.21,0,0,0,0,.85,2.42,2.42,0,0,1,0,.54,3,3,0,0,1-.06.4,2.06,2.06,0,0,0,0,.82,2.14,2.14,0,0,1,.06.56,3.17,3.17,0,0,1-.07.61,1.59,1.59,0,0,0,0,.78.73.73,0,0,1,0,.33c0,.32-.07.65-.09,1a1.67,1.67,0,0,0,0,.5,1.43,1.43,0,0,1,0,.58l-.06.42a1.67,1.67,0,0,0,0,.77,1.63,1.63,0,0,1,.06.66c0,.19,0,.39-.07.58a1.5,1.5,0,0,0,0,.73,1.23,1.23,0,0,1,0,.57.84.84,0,0,0,0,.42c.15.38.33.75.49,1.13a.23.23,0,0,0,.24.14,3.87,3.87,0,0,1,.48,0h.06a1.79,1.79,0,0,1,.73,0,1.38,1.38,0,0,0,.64,0,.43.43,0,0,1,.19,0,2.6,2.6,0,0,0,.68,0,.93.93,0,0,1,.24,0,1,1,0,0,0,.56,0,2.33,2.33,0,0,1,.79-.06,3.93,3.93,0,0,1,.48.06,1.68,1.68,0,0,0,.86,0,1.13,1.13,0,0,1,.32,0c.15,0,.29,0,.44.06a6.26,6.26,0,0,0,.75,0,.64.64,0,0,0,.62-.76,4.35,4.35,0,0,1,0-.51s0,0,0-.07c0-.22,0-.43-.05-.65a3.4,3.4,0,0,1,.05-1.23v-.08c0-.24,0-.5,0-.74s0-.4-.08-.6a.3.3,0,0,0-.23-.24.75.75,0,0,0-.57,0,.67.67,0,0,1-.42,0,3.94,3.94,0,0,0-1.37,0,4.51,4.51,0,0,1-1.15-.06c0-.13,0-.25,0-.37,0-.33,0-.66,0-1a6.27,6.27,0,0,1,0-1,5.53,5.53,0,0,0,0-.91,7.21,7.21,0,0,1,0-.93c0-.32,0-.63,0-.95a7.66,7.66,0,0,1,0-.83,6.61,6.61,0,0,0,0-1.09,3,3,0,0,1,0-.73,4.28,4.28,0,0,0,0-1.13,2,2,0,0,1,0-.69.38.38,0,0,1,.41-.36h.24a3.73,3.73,0,0,0,.47,0,4.65,4.65,0,0,1,1.29,0,.66.66,0,0,0,.28,0,.24.24,0,0,0,.21-.24,3,3,0,0,1,.09-.6,1.51,1.51,0,0,0,0-.3c0-.13,0-.26,0-.38,0-.28.11-.57,0-.79a3.55,3.55,0,0,0,.08-.47,6.09,6.09,0,0,1,0-.85.86.86,0,0,0,0-.32,1,1,0,0,1,0-.48.29.29,0,0,0-.19-.37l-.16,0a4.85,4.85,0,0,0-1.37,0A3.61,3.61,0,0,1,8.11,15.63Z" transform="translate(-1.36 -1.36)"/><path class="cls-3" d="M26.39,25.82a7.55,7.55,0,0,1-.17,1.06,9.91,9.91,0,0,1-.48,1.17,5.64,5.64,0,0,1-.31.53.91.91,0,0,1-.35.38.45.45,0,0,0-.16.22.88.88,0,0,1-.47.51,1.78,1.78,0,0,0-.36.25,1.88,1.88,0,0,1-.59.35c-.23.09-.45.16-.67.26a3,3,0,0,1-.74.19l-.46.08a2.31,2.31,0,0,1-.37,0c-.27,0-.53,0-.79-.06a2,2,0,0,1-.35-.08,1.22,1.22,0,0,0-.56-.09.6.6,0,0,1-.44-.12,6.16,6.16,0,0,0-.55-.33,3.22,3.22,0,0,1-.85-.61c-.14-.14-.3-.25-.45-.38a1.63,1.63,0,0,1-.17-.2c-.09-.15-.18-.31-.28-.46a3.1,3.1,0,0,1-.45-.79,1,1,0,0,0-.15-.27.69.69,0,0,1-.13-.55.69.69,0,0,0-.05-.4,1.34,1.34,0,0,1-.07-.27c0-.3-.05-.61-.06-.91a.61.61,0,0,1,0-.3,1.77,1.77,0,0,0,.08-.46,4.21,4.21,0,0,1,.09-.49c.06-.21.13-.41.21-.62s.12-.22.18-.33a4.1,4.1,0,0,0,.23-.4,1.75,1.75,0,0,1,.34-.51c.17-.17.33-.35.51-.52a1.86,1.86,0,0,1,.32-.23c.06,0,.13-.08.18-.13a1.38,1.38,0,0,1,.63-.42,1.52,1.52,0,0,0,.36-.18,1.78,1.78,0,0,1,.86-.27,1.69,1.69,0,0,0,.67-.12,1,1,0,0,1,.5-.06,14.82,14.82,0,0,1,2.08.45,2.91,2.91,0,0,1,1,.49,10.91,10.91,0,0,1,1.09,1.06,1.23,1.23,0,0,1,.22.29,6.6,6.6,0,0,1,.48.91,6.1,6.1,0,0,1,.31.91A6.71,6.71,0,0,1,26.39,25.82Z" transform="translate(-1.36 -1.36)"/></svg>